<svg width="24" height="24" viewBox="0 0 24 24" fill="none" xmlns="http://www.w3.org/2000/svg">
<mask id="mask0" mask-type="alpha" maskUnits="userSpaceOnUse" x="6" y="6" width="12" height="12">
<path fill-rule="evenodd" clip-rule="evenodd" d="M12.5 7.97059C12.5 7.71069 12.2761 7.5 12 7.5C11.7239 7.5 11.5 7.71069 11.5 7.97059V11.5H7.94444C7.69898 11.5 7.5 11.7239 7.5 12C7.5 12.2761 7.69898 12.5 7.94444 12.5H11.5V16.0294C11.5 16.2893 11.7239 16.5 12 16.5C12.2761 16.5 12.5 16.2893 12.5 16.0294V12.5H16.0556C16.301 12.5 16.5 12.2761 16.5 12C16.5 11.7239 16.301 11.5 16.0556 11.5H12.5V7.97059Z" fill="#111111"/>
</mask>
<g mask="url(#mask0)">
<rect x="6" y="6" width="12" height="12" fill="#787878"/>
</g>
</svg>
