<svg width="16" height="15" viewBox="0 0 16 15" fill="none" xmlns="http://www.w3.org/2000/svg">
<path d="M6.43512 0.582333C6.73482 0.753589 6.83894 1.13537 6.66768 1.43507L4.70201 4.87499H11.298L9.33238 1.43507C9.16112 1.13537 9.26525 0.753589 9.56494 0.582333C9.86464 0.411077 10.2464 0.5152 10.4177 0.814898L12.7377 4.87499H14.875C15.2202 4.87499 15.5 5.15481 15.5 5.49999C15.5 5.84517 15.2202 6.12499 14.875 6.12499H12.3867C12.3793 6.12512 12.3719 6.12512 12.3645 6.12499H3.63559C3.62817 6.12512 3.62075 6.12512 3.61332 6.12499H1.125C0.779822 6.12499 0.5 5.84517 0.5 5.49999C0.5 5.15481 0.779822 4.87499 1.125 4.87499H3.26232L5.58238 0.814898C5.75363 0.5152 6.13542 0.411077 6.43512 0.582333Z" fill="#00AB56"/>
<path d="M5.5 7.99999C5.84518 7.99999 6.125 8.27981 6.125 8.62499V11.125C6.125 11.4702 5.84518 11.75 5.5 11.75C5.15482 11.75 4.875 11.4702 4.875 11.125V8.62499C4.875 8.27981 5.15482 7.99999 5.5 7.99999Z" fill="#00AB56"/>
<path d="M8 7.99999C8.34518 7.99999 8.625 8.27981 8.625 8.62499V11.125C8.625 11.4702 8.34518 11.75 8 11.75C7.65482 11.75 7.375 11.4702 7.375 11.125V8.62499C7.375 8.27981 7.65482 7.99999 8 7.99999Z" fill="#00AB56"/>
<path d="M11.125 8.62499C11.125 8.27981 10.8452 7.99999 10.5 7.99999C10.1548 7.99999 9.875 8.27981 9.875 8.62499V11.125C9.875 11.4702 10.1548 11.75 10.5 11.75C10.8452 11.75 11.125 11.4702 11.125 11.125V8.62499Z" fill="#00AB56"/>
<path d="M2.375 7.37499C2.72018 7.37499 3 7.65481 3 7.99999V13C3 13.1658 3.06585 13.3247 3.18306 13.4419C3.30027 13.5591 3.45924 13.625 3.625 13.625H12.375C12.5408 13.625 12.6997 13.5591 12.8169 13.4419C12.9342 13.3247 13 13.1658 13 13V7.99999C13 7.65481 13.2798 7.37499 13.625 7.37499C13.9702 7.37499 14.25 7.65481 14.25 7.99999V13C14.25 13.4973 14.0525 13.9742 13.7008 14.3258C13.3492 14.6774 12.8723 14.875 12.375 14.875H3.625C3.12772 14.875 2.65081 14.6774 2.29917 14.3258C1.94754 13.9742 1.75 13.4973 1.75 13V7.99999C1.75 7.65481 2.02982 7.37499 2.375 7.37499Z" fill="#00AB56"/>
</svg>
