<svg fill="#000000" xmlns="http://www.w3.org/2000/svg"  viewBox="0 0 64 64" width="64px" height="64px"><path d="M 26.972656 4 C 25.984694 4.0262 24.443859 4.1899602 22.751953 4.9296875 C 20.381081 5.9661163 19.040145 7.6029482 18.101562 8.6933594 C 15.50777 11.707738 13.909049 15.802182 13.904297 20.146484 A 1.0001 1.0001 0 0 0 13.888672 20.335938 C 13.888685 20.337238 13.888659 20.338544 13.888672 20.339844 C 13.888699 20.342444 13.888644 20.345056 13.888672 20.347656 A 1.0001 1.0001 0 0 0 13.927734 20.619141 C 13.946604 21.678138 14.130814 22.729371 14.353516 23.773438 C 11.573074 24.609828 8.9996895 26.009346 7.0234375 27.988281 C 7.0234375 27.988281 7.0214844 27.990234 7.0214844 27.990234 C 3.8635923 31.082305 2.0631379 35.179943 1.7617188 39.207031 C 1.6765728 40.336701 1.4860321 42.541695 2.3730469 45.119141 C 2.9045916 46.666275 3.6381299 47.83085 4.1933594 48.589844 A 1.0001 1.0001 0 0 0 5.9941406 48.107422 C 6.0853168 47.268998 6.2266659 46.057631 6.4375 44.599609 C 6.8080347 42.029901 7.02731 40.677072 7.1542969 40.333984 C 8.0912894 37.80483 10.029597 35.864934 12.154297 34.853516 A 1.0001 1.0001 0 0 0 12.166016 34.845703 C 13.213453 34.328262 14.326945 34.036505 15.425781 33.904297 C 16.411537 33.809215 17.382549 33.870026 18.316406 34.029297 L 18.011719 34.041016 C 18.227391 39.540663 21.738975 44.202729 26.632812 46.095703 C 26.472953 46.916224 26.220078 47.733363 25.839844 48.513672 C 24.363809 51.543901 21.521635 52.959759 20.224609 53.591797 L 20.224609 53.589844 C 17.301571 55.012165 14.561627 55.084628 13.054688 55.001953 A 1.0001 1.0001 0 0 0 12.5 56.865234 C 13.217247 57.280144 14.249312 57.798867 15.558594 58.203125 A 1.0001 1.0001 0 0 0 15.560547 58.203125 C 16.083709 58.364181 18.355646 59.026818 21.412109 58.802734 C 25.260556 58.521639 29.153406 56.828363 32.1875 53.917969 C 35.221538 56.827809 39.11323 58.520671 42.960938 58.802734 A 1.0001 1.0001 0 0 0 42.962891 58.802734 C 44.244276 58.896104 46.377631 59.073226 48.855469 58.189453 C 50.032298 57.769935 50.940808 57.240922 51.554688 56.832031 A 1.0001 1.0001 0 0 0 50.964844 55 C 49.468116 55.05255 46.893399 54.92225 44.146484 53.589844 C 42.85788 52.965005 40.016414 51.556183 38.535156 48.513672 C 38.192624 47.810735 37.958641 47.076714 37.796875 46.337891 C 42.890957 44.307278 46.597784 39.560207 47.144531 33.892578 C 47.736836 33.847228 48.339114 33.843684 48.947266 33.902344 C 50.047102 34.034562 51.159593 34.328261 52.207031 34.845703 A 1.0001 1.0001 0 0 0 52.220703 34.851562 C 54.345403 35.862982 56.281757 37.802876 57.21875 40.332031 C 57.673486 41.560176 57.77054 42.686297 57.929688 44.541016 C 58.050078 45.940452 58.036661 47.116766 58 47.957031 A 1.0001 1.0001 0 0 0 59.726562 48.685547 C 60.38852 47.984266 61.329194 46.818427 61.986328 45.160156 C 62.963502 42.696749 62.711478 40.523453 62.613281 39.207031 C 62.311854 35.180904 60.51149 31.080433 57.353516 27.988281 C 55.285996 25.918438 52.56877 24.474031 49.634766 23.662109 C 49.859413 22.558623 50.071458 21.448673 50.064453 20.330078 C 50.106493 15.929792 48.48332 11.777015 45.855469 8.734375 L 45.855469 8.7324219 C 44.950249 7.6841327 43.60268 6.0525895 41.234375 4.9921875 C 39.56087 4.2426768 38.035974 4.0498411 37.048828 4.0019531 A 1.0001 1.0001 0 0 0 36.474609 5.8496094 C 37.417893 6.4327976 39.995849 8.2041022 41.345703 11.621094 C 41.692879 12.499075 42.882779 15.738061 41.708984 19.140625 C 41.375638 20.107175 40.879608 20.980741 40.302734 21.769531 C 38.132828 20.111792 35.438623 19.09491 32.505859 19.009766 C 29.247756 18.915429 26.223357 19.997463 23.833984 21.857422 C 23.231692 21.046677 22.719156 20.141187 22.378906 19.136719 A 1.0001 1.0001 0 0 0 22.373047 19.123047 C 21.586092 16.905512 21.587486 14.163047 22.712891 11.712891 C 23.293823 10.447608 24.06512 9.5446328 25.181641 8.2421875 L 25.181641 8.2402344 C 26.116943 7.1508155 26.99744 6.3244962 27.654297 5.7558594 A 1.0001 1.0001 0 0 0 26.972656 4 z M 23.921875 6.6816406 C 23.825855 6.7897226 23.761339 6.8261144 23.664062 6.9394531 A 1.0001 1.0001 0 0 0 23.662109 6.9394531 C 22.545308 8.2422217 21.607335 9.3287083 20.896484 10.876953 C 19.539421 13.831462 19.530543 17.080592 20.486328 19.78125 C 20.946346 21.137419 21.644812 22.329341 22.449219 23.351562 A 1.0001 1.0001 0 0 0 22.462891 23.369141 C 23.304307 24.39281 24.27593 25.22878 25.285156 25.90625 A 1.0001 1.0001 0 0 0 25.291016 25.910156 C 25.53592 26.071948 25.782614 26.218573 26.025391 26.355469 A 1.0001 1.0001 0 0 0 26.101562 26.394531 C 26.488284 26.570671 26.856549 26.742529 27.199219 26.929688 A 1.0001 1.0001 0 0 0 27.287109 26.972656 C 28.481744 27.481195 29.729613 27.787284 31 27.90625 L 31 29.09375 C 29.863918 29.298221 28.915195 29.83979 28.251953 30.585938 C 27.402014 31.542119 27 32.777778 27 34 C 27 34.146915 27.025412 34.292658 27.037109 34.439453 C 26.47717 34.812801 25.917602 35.187143 25.357422 35.560547 C 25.313631 35.514487 25.273003 35.465352 25.228516 35.419922 A 1.0001 1.0001 0 0 0 25.210938 35.404297 C 23.535024 33.77281 21.43602 32.617375 19.019531 32.117188 A 1.0001 1.0001 0 0 0 19.007812 32.115234 C 17.815427 31.881311 16.539294 31.78526 15.220703 31.914062 A 1.0001 1.0001 0 0 0 15.199219 31.916016 C 13.910329 32.069993 12.57365 32.418673 11.291016 33.050781 C 8.7036786 34.283882 6.4096044 36.587716 5.2792969 39.638672 C 4.9502837 40.527585 4.8284497 41.750208 4.4589844 44.3125 C 4.4335187 44.488608 4.429766 44.56746 4.40625 44.736328 C 4.3628365 44.622757 4.3064431 44.587622 4.265625 44.46875 A 1.0001 1.0001 0 0 0 4.2636719 44.466797 C 3.5166835 42.296289 3.6690054 40.509752 3.7558594 39.357422 C 4.0203766 35.823359 5.625005 32.153717 8.421875 29.416016 A 1.0001 1.0001 0 0 0 8.4296875 29.408203 C 10.337523 27.494766 12.895752 26.069165 15.681641 25.382812 A 1.0001 1.0001 0 0 0 16.408203 24.15625 C 16.072292 22.881679 15.886819 21.594372 15.888672 20.339844 A 1.0001 1.0001 0 0 0 15.888672 20.328125 C 15.847342 16.414457 17.305684 12.684364 19.617188 9.9980469 C 20.582605 8.876458 21.627607 7.6032898 23.552734 6.7617188 C 23.699497 6.6975517 23.778067 6.7356808 23.921875 6.6816406 z M 40.886719 7.125 C 42.476666 7.9739455 43.504661 9.0716524 44.341797 10.041016 C 46.647374 12.709992 48.103888 16.420883 48.064453 20.318359 A 1.0001 1.0001 0 0 0 48.064453 20.335938 C 48.072753 21.561187 47.89902 22.820273 47.582031 24.068359 A 1.0001 1.0001 0 0 0 48.333984 25.291016 C 51.256476 25.938159 53.953218 27.411445 55.945312 29.408203 A 1.0001 1.0001 0 0 0 55.953125 29.416016 C 58.749913 32.153637 60.354631 35.822444 60.619141 39.355469 C 60.722944 40.747047 60.915779 42.435236 60.126953 44.423828 C 60.069903 44.567791 59.991507 44.597361 59.929688 44.732422 C 59.919558 44.588271 59.934675 44.518116 59.921875 44.369141 C 59.763022 42.517859 59.656967 41.154527 59.095703 39.638672 A 1.0001 1.0001 0 0 0 59.09375 39.636719 C 57.963442 36.585763 55.671317 34.283928 53.083984 33.050781 C 51.801348 32.418672 50.463708 32.069983 49.173828 31.916016 A 1.0001 1.0001 0 0 0 49.152344 31.912109 C 47.833753 31.783307 46.557621 31.881269 45.365234 32.115234 A 1.0001 1.0001 0 0 0 45.353516 32.117188 C 42.937781 32.617443 40.837948 33.772003 39.162109 35.402344 A 1.0001 1.0001 0 0 0 39.144531 35.419922 C 39.05136 35.515067 38.965099 35.616942 38.875 35.714844 C 38.237396 35.289785 37.600182 34.864377 36.962891 34.439453 C 36.974588 34.292658 37 34.146915 37 34 C 37 32.777778 36.597986 31.542119 35.748047 30.585938 C 35.084805 29.83979 34.136082 29.298221 33 29.09375 L 33 27.916016 C 34.999542 27.741162 36.956665 27.095335 38.740234 25.933594 A 1.0001 1.0001 0 0 0 38.748047 25.927734 C 39.761453 25.25213 40.742446 24.416833 41.591797 23.390625 A 1.0001 1.0001 0 0 0 41.605469 23.375 C 42.413303 22.353106 43.128303 21.159536 43.599609 19.792969 C 45.033815 15.635532 43.583899 11.844737 43.205078 10.886719 C 42.585673 9.3187562 41.74182 8.1295873 40.886719 7.125 z M 29.494141 13.169922 A 1.0001 1.0001 0 0 0 28.558594 14.320312 L 28.833984 16.300781 A 1.0007293 1.0007293 0 0 0 30.816406 16.025391 L 30.541016 14.044922 A 1.0001 1.0001 0 0 0 29.494141 13.169922 z M 34.927734 13.199219 A 1.0001 1.0001 0 0 0 33.902344 14.064453 L 33.603516 16.041016 A 1.0004774 1.0004774 0 1 0 35.582031 16.339844 L 35.878906 14.361328 A 1.0001 1.0001 0 0 0 34.927734 13.199219 z M 24.367188 14.667969 A 1.0001 1.0001 0 0 0 23.509766 16.095703 L 24.34375 17.914062 A 1.0001 1.0001 0 1 0 26.162109 17.082031 L 25.328125 15.261719 A 1.0001 1.0001 0 0 0 24.367188 14.667969 z M 40.037109 14.755859 A 1.0001 1.0001 0 0 0 39.101562 15.341797 L 38.246094 17.148438 A 1.0003547 1.0003547 0 1 0 40.054688 18.003906 L 40.910156 16.195312 A 1.0001 1.0001 0 0 0 40.037109 14.755859 z M 32.447266 21.007812 C 34.890083 21.078736 37.121319 21.908277 38.943359 23.257812 C 38.529064 23.626937 38.092671 23.961447 37.642578 24.261719 C 37.641478 24.262482 37.639772 24.262872 37.638672 24.263672 C 35.888405 25.401107 33.984688 25.941055 32.013672 25.964844 C 30.65784 25.944424 29.334174 25.670821 28.070312 25.132812 C 27.71152 24.940797 27.354539 24.771803 27.007812 24.613281 L 27.001953 24.609375 C 26.794997 24.492531 26.593767 24.371658 26.400391 24.244141 L 26.398438 24.242188 C 26.397237 24.241398 26.395731 24.241034 26.394531 24.240234 C 25.982779 23.96351 25.582945 23.656639 25.201172 23.322266 C 27.213286 21.804575 29.727043 20.92905 32.447266 21.007812 z M 32 31 C 33.083333 31 33.768559 31.370244 34.251953 31.914062 C 34.735347 32.457881 35 33.222222 35 34 C 35 34.777778 34.735347 35.542119 34.251953 36.085938 C 33.768559 36.629756 33.083333 37 32 37 C 30.916667 37 30.231441 36.629756 29.748047 36.085938 C 29.264653 35.542119 29 34.777778 29 34 C 29 33.222222 29.264653 32.457881 29.748047 31.914062 C 30.231441 31.370244 30.916667 31 32 31 z M 45.091797 34.240234 C 44.468552 38.7295 41.552949 42.473116 37.564453 44.263672 C 37.565287 43.497704 37.644352 42.744711 37.789062 42.019531 C 38.222567 39.972465 39.187223 38.23971 40.566406 36.828125 C 41.825255 35.606228 43.337916 34.719728 45.091797 34.240234 z M 20.048828 34.478516 C 21.479279 34.988498 22.731533 35.786537 23.802734 36.826172 C 25.183976 38.238474 26.150076 39.970559 26.583984 42.019531 C 26.711871 42.659885 26.785016 43.321656 26.802734 43.994141 C 23.07901 42.324837 20.40747 38.736492 20.048828 34.478516 z M 50.203125 35.867188 A 1.0001 1.0001 0 0 0 50.023438 37.841797 L 51.966797 38.316406 A 1.0001 1.0001 0 1 0 52.441406 36.375 L 50.5 35.898438 A 1.0001 1.0001 0 0 0 50.203125 35.867188 z M 15.441406 36 A 1.0001 1.0001 0 0 0 15.173828 36.025391 L 13.21875 36.449219 A 1.0001 1.0001 0 1 0 13.640625 38.404297 L 15.595703 37.980469 A 1.0001 1.0001 0 0 0 15.441406 36 z M 27.611328 36.460938 C 27.788704 36.796943 27.992243 37.121889 28.251953 37.414062 C 29.101892 38.370244 30.416667 39 32 39 C 33.583333 39 34.898108 38.370244 35.748047 37.414062 C 36.007757 37.121889 36.211296 36.796943 36.388672 36.460938 C 36.804747 36.73828 37.220777 37.015699 37.636719 37.292969 C 36.789422 38.573536 36.166056 40.019697 35.830078 41.609375 A 1.0001 1.0001 0 0 0 35.828125 41.619141 C 35.588838 42.814505 35.486932 44.097164 35.611328 45.421875 A 1.0001 1.0001 0 0 0 35.613281 45.445312 C 35.765901 46.738281 36.102979 48.08893 36.736328 49.388672 C 38.55107 53.116161 41.981995 54.76151 43.275391 55.388672 C 44.580901 56.021915 45.793003 56.309223 46.951172 56.550781 C 45.459362 56.862261 44.122704 56.882576 43.107422 56.808594 C 39.589968 56.550741 35.937525 54.955812 33.208984 52.171875 A 1.0001 1.0001 0 0 0 33.197266 52.162109 C 33.148096 52.113399 33.057953 52.000538 32.910156 51.845703 A 1.0001 1.0001 0 0 0 31.462891 51.845703 C 31.313695 52.002072 31.225399 52.113339 31.179688 52.158203 A 1.0001 1.0001 0 0 0 31.166016 52.171875 C 28.437397 54.955893 24.782708 56.551702 21.265625 56.808594 C 19.492537 56.938587 18.243391 56.749444 17.324219 56.554688 C 18.517625 56.312247 19.75532 56.04279 21.099609 55.388672 A 1.0001 1.0001 0 0 0 21.101562 55.388672 C 22.402538 54.75471 25.826754 53.106396 27.636719 49.390625 C 28.270068 48.090883 28.608152 46.740818 28.759766 45.447266 A 1.0001 1.0001 0 0 0 28.761719 45.423828 C 28.887305 44.098072 28.784099 42.815894 28.544922 41.621094 A 1.0001 1.0001 0 0 0 28.542969 41.609375 C 28.191821 39.94792 27.526211 38.443476 26.619141 37.121094 C 26.949633 36.900807 27.280752 36.681289 27.611328 36.460938 z M 16.863281 40.130859 A 1.0001 1.0001 0 0 0 16.414062 40.251953 L 14.642578 41.179688 A 1.0001 1.0001 0 1 0 15.570312 42.951172 L 17.341797 42.023438 A 1.0001 1.0001 0 0 0 16.863281 40.130859 z M 48.482422 40.435547 A 1.0001 1.0001 0 0 0 47.986328 42.316406 L 49.732422 43.289062 A 1.0002155 1.0002155 0 0 0 50.705078 41.541016 L 48.958984 40.568359 A 1.0001 1.0001 0 0 0 48.482422 40.435547 z M 19.439453 43.716797 A 1.0001 1.0001 0 0 0 18.742188 43.994141 L 17.277344 45.355469 A 1.0001 1.0001 0 1 0 18.638672 46.820312 L 20.103516 45.458984 A 1.0001 1.0001 0 0 0 19.439453 43.716797 z M 45.507812 44.369141 A 1.0001 1.0001 0 0 0 44.833984 46.095703 L 46.265625 47.490234 A 1.0001 1.0001 0 1 0 47.662109 46.058594 L 46.230469 44.662109 A 1.0001 1.0001 0 0 0 45.507812 44.369141 z M 22.865234 46.511719 A 1.0001 1.0001 0 0 0 22.765625 46.513672 A 1.0001 1.0001 0 0 0 21.96875 46.996094 L 20.914062 48.697266 A 1.0001 1.0001 0 1 0 22.613281 49.751953 L 23.667969 48.050781 A 1.0001 1.0001 0 0 0 22.865234 46.511719 z M 41.615234 47.404297 A 1.0001 1.0001 0 0 0 40.808594 48.923828 L 41.824219 50.644531 A 1.0001 1.0001 0 1 0 43.546875 49.628906 L 42.53125 47.90625 A 1.0001 1.0001 0 0 0 41.615234 47.404297 z"/></svg>