<svg fill="#000000" xmlns="http://www.w3.org/2000/svg"  viewBox="0 0 64 64" width="64px" height="64px"><path d="M 32.730469 0.21875 C 32.542969 0.242188 32.351563 0.296875 32.171875 0.382813 C 31.449219 0.710938 31 1.410156 31 2.199219 L 31 15 L 15.820313 15 C 14.371094 15 13 15.621094 12.050781 16.710938 L 0.699219 29.679688 C 0.167969 30.28125 0.0507813 31.101563 0.382813 31.828125 C 0.710938 32.550781 1.410156 33 2.199219 33 L 15 33 L 15 48.1875 C 15 49.628906 15.621094 51 16.710938 51.949219 L 29.679688 63.300781 C 30.058594 63.628906 30.519531 63.800781 30.988281 63.800781 C 31.269531 63.800781 31.558594 63.738281 31.828125 63.621094 C 32.550781 63.289063 33 62.589844 33 61.800781 L 33 49 L 48.179688 49 C 49.628906 49 51 48.378906 51.949219 47.289063 L 63.300781 34.320313 C 63.832031 33.71875 63.949219 32.898438 63.621094 32.171875 C 63.289063 31.449219 62.589844 31 61.800781 31 L 49 31 L 49 15.8125 C 49 14.371094 48.378906 13 47.289063 12.050781 L 34.320313 0.699219 C 33.871094 0.300781 33.296875 0.136719 32.730469 0.21875 Z M 33 2.199219 L 45.980469 13.5625 C 46.628906 14.128906 47 14.949219 47 15.8125 L 47 31 L 36.902344 31 C 36.75 30.261719 36.429688 29.570313 35.988281 28.988281 L 40.929688 23.390625 C 41.289063 22.980469 41.25 22.351563 40.839844 21.980469 C 40.417969 21.621094 39.789063 21.660156 39.429688 22.070313 L 34.488281 27.671875 C 34.03125 27.398438 33.53125 27.210938 33 27.097656 Z M 44.695313 16.546875 C 44.441406 16.558594 44.191406 16.671875 44.007813 16.878906 L 42.015625 19.140625 C 41.648438 19.554688 41.6875 20.1875 42.101563 20.550781 C 42.289063 20.71875 42.527344 20.800781 42.765625 20.800781 C 43.039063 20.800781 43.316406 20.6875 43.515625 20.464844 L 45.507813 18.203125 C 45.871094 17.792969 45.832031 17.160156 45.417969 16.792969 C 45.210938 16.613281 44.949219 16.53125 44.695313 16.546875 Z M 16.511719 17 L 31 17 L 31 27.097656 C 30.261719 27.25 29.570313 27.570313 28.988281 28.011719 Z M 14.152344 17.511719 C 14.191406 17.601563 14.261719 17.679688 14.339844 17.75 L 27.671875 29.511719 C 27.398438 29.96875 27.210938 30.46875 27.097656 31 L 2.199219 31 L 5 27.800781 L 5 28 C 5 28.550781 5.445313 29 6 29 C 6.554688 29 7 28.550781 7 28 L 7 26 C 7 25.859375 6.972656 25.726563 6.921875 25.609375 L 13.5625 18.019531 C 13.730469 17.820313 13.929688 17.648438 14.152344 17.511719 Z M 11 25 C 10.445313 25 10 25.449219 10 26 L 10 28 C 10 28.550781 10.445313 29 11 29 C 11.554688 29 12 28.550781 12 28 L 12 26 C 12 25.449219 11.554688 25 11 25 Z M 16 25 C 15.445313 25 15 25.449219 15 26 L 15 28 C 15 28.550781 15.445313 29 16 29 C 16.554688 29 17 28.550781 17 28 L 17 26 C 17 25.449219 16.554688 25 16 25 Z M 21 25 C 20.445313 25 20 25.449219 20 26 L 20 28 C 20 28.550781 20.445313 29 21 29 C 21.554688 29 22 28.550781 22 28 L 22 26 C 22 25.449219 21.554688 25 21 25 Z M 32 29 C 32.339844 29 32.691406 29.058594 33 29.179688 C 33.039063 29.191406 33.078125 29.199219 33.121094 29.21875 C 33.757813 29.480469 34.289063 29.949219 34.621094 30.539063 C 34.699219 30.6875 34.769531 30.839844 34.820313 31 C 34.941406 31.308594 35 31.648438 35 32 C 35 32.351563 34.941406 32.691406 34.820313 33 C 34.808594 33.039063 34.789063 33.078125 34.769531 33.109375 C 34.519531 33.75 34.050781 34.28125 33.449219 34.609375 C 33.308594 34.699219 33.160156 34.761719 33 34.820313 C 32.691406 34.941406 32.351563 35 32 35 C 31.648438 35 31.308594 34.941406 31 34.820313 C 30.960938 34.808594 30.921875 34.800781 30.878906 34.78125 C 30.242188 34.519531 29.710938 34.050781 29.378906 33.460938 C 29.300781 33.3125 29.230469 33.160156 29.179688 33 C 29.058594 32.691406 29 32.351563 29 32 C 29 31.648438 29.058594 31.308594 29.179688 31 C 29.191406 30.960938 29.210938 30.921875 29.230469 30.890625 C 29.480469 30.25 29.949219 29.710938 30.550781 29.390625 C 30.691406 29.300781 30.839844 29.230469 31 29.179688 C 31.308594 29.058594 31.648438 29 32 29 Z M 61.800781 32.988281 L 61.800781 33 L 59 36.199219 L 59 36 C 59 35.449219 58.554688 35 58 35 C 57.445313 35 57 35.449219 57 36 L 57 38 C 57 38.140625 57.027344 38.273438 57.078125 38.390625 L 50.4375 45.980469 C 50.265625 46.179688 50.0625 46.339844 49.84375 46.484375 C 49.804688 46.394531 49.738281 46.316406 49.660156 46.25 L 36.339844 34.488281 C 36.601563 34.03125 36.789063 33.53125 36.902344 33 L 49 33 L 49 32.996094 Z M 17 33 L 27.097656 33 C 27.25 33.738281 27.570313 34.429688 28.011719 35.011719 L 17 47.488281 Z M 43 35 C 42.445313 35 42 35.449219 42 36 L 42 38 C 42 38.550781 42.445313 39 43 39 C 43.554688 39 44 38.550781 44 38 L 44 36 C 44 35.449219 43.554688 35 43 35 Z M 48 35 C 47.445313 35 47 35.449219 47 36 L 47 38 C 47 38.550781 47.445313 39 48 39 C 48.554688 39 49 38.550781 49 38 L 49 36 C 49 35.449219 48.554688 35 48 35 Z M 53 35 C 52.445313 35 52 35.449219 52 36 L 52 38 C 52 38.550781 52.445313 39 53 39 C 53.554688 39 54 38.550781 54 38 L 54 36 C 54 35.449219 53.554688 35 53 35 Z M 35.011719 35.988281 L 47.488281 47 L 33 47 L 33 36.902344 C 33.738281 36.75 34.429688 36.441406 35.011719 35.988281 Z M 29.511719 36.328125 C 29.960938 36.601563 30.46875 36.789063 31 36.902344 L 31 49 L 31.011719 49 L 31.011719 61.800781 L 18.019531 50.4375 C 17.820313 50.269531 17.648438 50.070313 17.511719 49.847656 C 17.601563 49.808594 17.679688 49.738281 17.75 49.660156 Z"/></svg>